<?xml version="1.0" encoding="utf-8"?>
<!-- Generator: Adobe Illustrator 23.0.2, SVG Export Plug-In . SVG Version: 6.00 Build 0)  -->
<svg version="1.1" id="Layer_1" xmlns="http://www.w3.org/2000/svg" xmlns:xlink="http://www.w3.org/1999/xlink" x="0px" y="0px"
	 viewBox="0 0 1200 318" style="enable-background:new 0 0 1200 318;" xml:space="preserve">
<style type="text/css">
	.st0{fill:#282828;stroke:#000000;stroke-miterlimit:10;}
	.st1{fill:#FFFFFF;}
	.st2{fill:#FF0000;}
</style>
<title>YouTube-Logo_Dark</title>
<rect class="st0" width="1200" height="318"/>
<g id="g7451">
	<g id="g7449">
		<path id="path7435" class="st1" d="M564.9,237.5c-5.8-3.9-9.9-9.9-12.4-18.4c-2.4-8.2-3.6-19.4-3.6-33v-18.6
			c0-13.8,1.5-25,4.1-33.4c2.9-8.5,7.3-14.5,13.1-18.4c6-3.9,13.8-5.8,23.5-5.8c9.5,0,17.2,1.9,23,5.8s9.9,10.2,12.6,18.4
			s4.1,19.4,4.1,33.4v18.6c0,13.8-1.2,24.7-3.9,33.2c-2.7,8.2-6.8,14.5-12.6,18.4s-13.8,5.8-23.8,5.8
			C578.9,243.4,570.7,241.4,564.9,237.5L564.9,237.5z M597.6,217.2c1.7-4.1,2.4-11.1,2.4-20.6v-40.2c0-9.2-0.7-16-2.4-20.4
			s-4.4-6.3-8.5-6.3c-3.9,0-6.8,2.2-8.2,6.3c-1.7,4.4-2.4,11.1-2.4,20.4v40.2c0,9.5,0.7,16.5,2.4,20.6c1.5,4.1,4.4,6.3,8.5,6.3
			C593.2,223.5,595.9,221.6,597.6,217.2L597.6,217.2z"/>
		<path id="path7437" class="st1" d="M1012.1,186.4v6.6c-0.1,6.2,0.2,12.5,0.7,18.6c0.5,4.1,1.5,7.3,3.2,9c1.4,1.9,3.9,2.9,7.3,2.9
			c4.4,0,7.3-1.7,9-5.1s2.4-9,2.7-17l25,1.5c0.2,1.5,0.3,3.1,0.2,4.6c0,11.9-3.2,20.8-9.7,26.6s-15.8,8.7-27.6,8.7
			c-14.3,0-24.2-4.6-30-13.6s-8.7-22.8-8.7-41.7V165c0-19.4,2.9-33.4,9-42.4s16.2-13.3,30.5-13.3c9.9,0,17.7,1.9,23,5.6
			s9,9.5,11.2,17c2.2,7.8,3.2,18.4,3.2,32v22h-48.8L1012.1,186.4z M1015.8,132.2c-1.5,1.9-2.4,4.9-2.9,9c-0.6,6.3-0.8,12.6-0.7,18.9
			v9.2h21.3V160c0.1-6.3-0.2-12.6-0.7-18.9c-0.5-4.4-1.7-7.3-3.2-9c-1.8-1.8-4.2-2.8-6.8-2.7
			C1019.4,129.2,1017.2,130.2,1015.8,132.2L1015.8,132.2z"/>
		<path id="path7439" class="st1" d="M494.2,184l-33-119.4H490l11.6,54c2.9,13.3,5.1,24.7,6.5,34.2h0.7c1-6.8,3.2-17.9,6.5-33.9
			l12.1-54.3h28.8L523,184v57.2h-28.6V184H494.2z"/>
		<path id="path7441" class="st1" d="M723.1,112.3v129.1h-22.8l-2.4-15.8h-0.7c-6.1,11.9-15.5,17.9-27.9,17.9
			c-8.5,0-14.8-2.9-18.9-8.5s-6.1-14.3-6.1-26.4v-96.4h29.1V207c0,5.8,0.7,9.9,1.9,12.4c1.2,2.4,3.6,3.8,6.3,3.6
			c2.6,0,5.2-0.9,7.3-2.4c2.3-1.3,4.1-3.4,5.1-5.8V112.3H723.1z"/>
		<path id="path7443" class="st1" d="M872.1,112.3v129.1h-22.8l-2.4-15.8h-0.7c-6.1,11.9-15.5,17.9-27.9,17.9
			c-8.5,0-14.8-2.9-18.9-8.5s-6.1-14.3-6.1-26.4v-96.4h29.1V207c0,5.8,0.7,9.9,1.9,12.4c1.2,2.4,3.7,3.8,6.3,3.6
			c2.6,0,5.2-0.9,7.3-2.4c2.3-1.3,4.1-3.4,5.1-5.8V112.3H872.1z"/>
		<path id="path7445" class="st1" d="M802.1,88.1h-28.8v153.1h-28.4V88.1h-28.8V64.6h86V88.1z"/>
		<path id="path7447" class="st1" d="M968.3,132.9c-1.7-8.2-4.6-14-8.5-17.7s-9.5-5.6-16.2-5.6c-5.4,0-10.6,1.6-15,4.6
			c-4.6,2.9-8.3,7-10.7,11.9h-0.2V58h-28.1v183.2h24l2.9-12.1h0.7c2.2,4.4,5.7,8,10.1,10.4c4.6,2.5,9.8,3.9,15,3.9
			c9.9,0,17-4.6,21.6-13.6s7-23.3,7-42.4V167C970.6,152.3,969.9,140.9,968.3,132.9L968.3,132.9z M941.6,185.5
			c0.1,7.4-0.3,14.7-1.2,22c-0.7,5.3-2.2,9.2-3.9,11.4c-1.8,2.2-4.5,3.4-7.3,3.4c-2.3,0.1-4.6-0.5-6.5-1.7c-2-1.3-3.7-3-4.8-5.1
			v-73.1c0.9-3.3,2.7-6.3,5.1-8.7c2.1-2.1,4.8-3.3,7.8-3.4c2.7-0.1,5.3,1.2,6.8,3.4c1.7,2.4,2.7,6.3,3.4,11.6c0.7,5.6,1,13.3,1,23.3
			v17L941.6,185.5z"/>
	</g>
</g>
<g id="g7433">
	<path id="path7429" class="st2" d="M425.8,82.3c-3.4-12.6-13.3-22.5-25.9-25.9c-23-6.3-115.1-6.3-115.1-6.3s-92.1,0-115.1,6.1
		c-12.6,3.6-22.4,13.5-25.9,26.2c-6.1,23-6.1,70.7-6.1,70.7s0,48,6.1,70.7c3.4,12.6,13.3,22.5,25.9,25.9
		C193,256,284.8,256,284.8,256s92.1,0,115.1-6.1c12.6-3.4,22.5-13.3,25.9-25.9c6.1-23,6.1-70.8,6.1-70.8S432.1,105.3,425.8,82.3
		L425.8,82.3z"/>
	<path id="polygon7431" class="st1" d="M255.5,108.9v88.2l76.6-44.1L255.5,108.9z"/>
</g>
</svg>
